<?xml version="1.0" encoding="UTF-8"?>
<svg version="1.1" xmlns="http://www.w3.org/2000/svg" width="1024" height="1024">
<path d="M0 0 C337.92 0 675.84 0 1024 0 C1024 337.92 1024 675.84 1024 1024 C686.08 1024 348.16 1024 0 1024 C0 686.08 0 348.16 0 0 Z " fill="#EEEEEE" transform="translate(0,0)"/>
<path d="M0 0 C7.4056744 7.2211914 13.81571235 15.36344404 20.11328125 23.5546875 C21.97389122 25.96616129 23.85670454 28.35930204 25.74389648 30.75 C30.34624682 36.58165055 34.88145258 42.45913657 39.375 48.375 C44.23930076 54.77192834 49.23946952 61.039838 54.33105469 67.25683594 C58.50408361 72.36114117 62.54306862 77.55238877 66.54296875 82.79296875 C69.1440258 86.19854123 71.78691993 89.57039565 74.4375 92.9375 C74.89527832 93.51902832 75.35305664 94.10055664 75.82470703 94.69970703 C76.75259621 95.8779014 77.68065654 97.05596099 78.60888672 98.23388672 C80.90874242 101.15371054 83.20412359 104.07704703 85.5 107 C86.41275331 108.16146392 87.32551373 109.32292225 88.23828125 110.484375 C90.11188772 112.86884396 91.98411982 115.25438395 93.85546875 117.640625 C97.90250157 122.79928915 101.95241677 127.95378209 106.0625 133.0625 C111.24465176 139.52171971 116.25773681 146.11127948 121.29101562 152.68652344 C122.56815727 154.35417197 123.84626012 156.02107671 125.125 157.6875 C125.54031982 158.22906738 125.95563965 158.77063477 126.38354492 159.32861328 C128.9402482 162.65247886 131.54631347 165.93054552 134.1875 169.1875 C145 182.62054481 145 182.62054481 145 185 C116.95 185 88.9 185 60 185 C55.05 176.42 50.1 167.84 45 159 C34.77789869 141.32691747 34.77789869 141.32691747 24 124 C23.28714844 125.03898438 22.57429687 126.07796875 21.83984375 127.1484375 C16.59378286 134.78973815 11.33735523 142.42204855 6 150 C1.88240051 148.42817631 -0.58370667 145.50524153 -3.3125 142.1875 C-3.77978516 141.68541016 -4.24707031 141.18332031 -4.72851562 140.66601562 C-7.85652122 136.82646961 -8.26599079 133.92728744 -7.94140625 129.01171875 C-7.66226136 126.67008711 -7.34642357 124.33262756 -7 122 C-6.82799072 120.77595459 -6.65598145 119.55190918 -6.47875977 118.29077148 C-5.90191265 114.39449716 -5.27127235 110.51032781 -4.625 106.625 C-4.41617188 105.33078125 -4.20734375 104.0365625 -3.9921875 102.703125 C-2.70682789 94.84989127 -1.24909272 87.052847 0.36889648 79.26293945 C1.15878537 75.17904587 1.63669593 71.14166645 2 67 C1.35675781 67.825 0.71351563 68.65 0.05078125 69.5 C-5.08902428 76.07497735 -10.28157687 82.60020436 -15.5625 89.0625 C-20.40361343 94.99163243 -25.13760243 100.98603937 -29.76171875 107.0859375 C-31.21001514 108.97150313 -32.69022468 110.83315616 -34.20703125 112.6640625 C-34.86058594 113.45554687 -35.51414062 114.24703125 -36.1875 115.0625 C-36.75855469 115.73410156 -37.32960938 116.40570312 -37.91796875 117.09765625 C-39.17661077 118.91499645 -39.17661077 118.91499645 -38.90625 120.92578125 C-37.71271344 123.6575395 -36.13447447 125.76081132 -34.3125 128.125 C-33.92167236 128.63579102 -33.53084473 129.14658203 -33.12817383 129.67285156 C-31.76019595 131.45496387 -30.38118394 133.22810441 -29 135 C-28.20674316 136.0194873 -28.20674316 136.0194873 -27.39746094 137.05957031 C-25.05783104 140.06573055 -22.7174568 143.07129591 -20.37304688 146.07373047 C-15.96114992 151.7331375 -11.63607456 157.45149041 -7.35522461 163.21044922 C-3.44817485 168.45021286 0.58051701 173.58657812 4.69995117 178.66113281 C8 182.78359129 8 182.78359129 8 185 C-42.16 185 -92.32 185 -144 185 C-142.44067735 181.10169338 -141.69975917 179.32005059 -139.1640625 176.35546875 C-138.60066162 175.68700928 -138.03726074 175.0185498 -137.45678711 174.32983398 C-136.55005249 173.26937866 -136.55005249 173.26937866 -135.625 172.1875 C-130.89089514 166.55316705 -126.30419101 160.86141388 -121.9375 154.9375 C-117.41189748 148.8091741 -112.69183272 142.8807311 -107.85302734 136.99755859 C-104.12546889 132.44338211 -100.55899517 127.79578734 -97.0625 123.0625 C-92.31910825 116.6457101 -87.32364891 110.48492696 -82.21337891 104.35791016 C-77.78234296 99.01844468 -73.59588472 93.53505065 -69.47314453 87.95581055 C-65.37658362 82.43722974 -61.0766366 77.10679992 -56.71899414 71.79321289 C-52.94560614 67.18545098 -49.27168552 62.51541812 -45.65869141 57.78125 C-42.27432757 53.34684813 -38.83550407 48.95771109 -35.38183594 44.57714844 C-32.7904586 41.28705365 -30.21171065 37.98783465 -27.6484375 34.67578125 C-20.32984814 25.22064585 -12.89818744 15.87358429 -5.32324219 6.62255859 C-3.53313394 4.42752918 -1.76423784 2.21584897 0 0 Z " fill="#191919" transform="translate(603,449)"/>
<path d="M0 0 C3.26059329 0.24678802 4.08051118 1.09078046 6.296875 3.58984375 C7.12453362 4.69836907 7.94171187 5.81477231 8.75 6.9375 C9.63718465 8.13083045 10.52521473 9.3235328 11.4140625 10.515625 C11.85137695 11.10794922 12.28869141 11.70027344 12.73925781 12.31054688 C14.48195562 14.64584294 16.29692318 16.91866157 18.125 19.1875 C18.77210938 19.99316406 19.41921875 20.79882812 20.0859375 21.62890625 C21.33848779 23.18053488 22.59359843 24.73010102 23.8515625 26.27734375 C27.98477275 31.388577 31.95530171 36.59981678 35.875 41.875 C40.25527001 47.76412125 44.80072484 53.43378016 49.53515625 59.04296875 C52.26710627 62.32044286 54.93484669 65.63866355 57.5625 69 C57.99256348 69.54035889 58.42262695 70.08071777 58.86572266 70.63745117 C63.09560489 76.09811044 63.09560489 76.09811044 63 79 C61.54386316 81.27329381 60.10381903 83.20029185 58.375 85.25 C57.88008057 85.8577124 57.38516113 86.4654248 56.87524414 87.09155273 C55.81143434 88.39541187 54.74196719 89.6946715 53.66748047 90.98974609 C51.45432355 93.65784771 49.26851979 96.3477242 47.08251953 99.03808594 C45.97954577 100.395441 44.87503499 101.75154844 43.76904297 103.10644531 C40.44315936 107.18816677 37.19294698 111.31346174 34 115.5 C29.73730079 121.08917936 25.33270146 126.54820506 20.88452148 131.99047852 C17.39302154 136.26798812 13.95560954 140.58165051 10.5625 144.9375 C5.80472879 151.04215972 0.90132518 157.01976108 -4.05444336 162.96459961 C-7.8523776 167.5378697 -11.4770367 172.2117077 -15 177 C-16.3948235 172.49295111 -15.25264029 168.75897257 -14.15625 164.29296875 C-13.95160629 163.42732803 -13.74696259 162.56168732 -13.53611755 161.66981506 C-12.86553877 158.84037422 -12.18260851 156.01406018 -11.5 153.1875 C-11.03740645 151.24146886 -10.57590547 149.2951777 -10.11547852 147.34863281 C-9.18819784 143.42946077 -8.25758444 139.51110508 -7.32470703 135.59326172 C-5.63453239 128.47693714 -3.99480372 121.34953729 -2.38232422 114.21524048 C-1.94778646 112.29544575 -1.50909941 110.37659168 -1.0703125 108.45776367 C0.16801105 102.98481585 1.33986393 97.5744824 2 92 C0.76636719 93.051875 0.76636719 93.051875 -0.4921875 94.125 C-6.42921458 99.17531662 -12.39128936 104.17475651 -18.5078125 109.0078125 C-22.30791508 112.04551205 -26.02659943 115.18145861 -29.75 118.3125 C-32 120 -32 120 -34 120 C-30.32167983 124.52615993 -26.58913637 128.39424999 -22 132 C-23.36196778 135.16402141 -24.76320523 136.88801175 -27.5 138.9609375 C-28.21293213 139.50758057 -28.92586426 140.05422363 -29.66040039 140.61743164 C-30.43246826 141.1974292 -31.20453613 141.77742676 -32 142.375 C-33.64470748 143.63127973 -35.28923374 144.88779674 -36.93359375 146.14453125 C-37.77647949 146.78471191 -38.61936523 147.42489258 -39.48779297 148.08447266 C-43.37091912 151.04530918 -47.21478687 154.05589325 -51.0625 157.0625 C-57.7889444 162.30343525 -64.54982334 167.49777467 -71.34399414 172.65063477 C-74.41746524 174.98892341 -77.43276782 177.35056659 -80.359375 179.87109375 C-83 182 -83 182 -85 182 C-83.41046798 176.87186694 -81.33280638 172.05757014 -79.140625 167.16796875 C-78.35266094 165.39658394 -77.56473953 163.62518016 -76.77685547 161.85375977 C-76.15783356 160.46605881 -76.15783356 160.46605881 -75.52630615 159.05032349 C-68.86240446 144.10283284 -62.27279437 129.12593146 -55.875 114.0625 C-55.57791138 113.36595306 -55.28082275 112.66940613 -54.97473145 111.95175171 C-54.14378531 110.00181944 -53.31712143 108.05013839 -52.4921875 106.09765625 C-52.03183105 105.00976807 -51.57147461 103.92187988 -51.09716797 102.80102539 C-50.20603151 100.52599011 -49.50685202 98.38364239 -49 96 C-50.28733963 97.60917453 -51.57461135 99.21840343 -52.86157227 100.82788086 C-53.95722532 102.19683495 -55.05407588 103.56483143 -56.15209961 104.93188477 C-58.62061037 108.00797297 -61.08075322 111.08647222 -63.47265625 114.22265625 C-64.16230469 115.11855469 -64.85195313 116.01445312 -65.5625 116.9375 C-66.16191406 117.73027344 -66.76132812 118.52304687 -67.37890625 119.33984375 C-67.91386719 119.88769531 -68.44882812 120.43554688 -69 121 C-69.99 121 -70.98 121 -72 121 C-73.60546875 119.25 -73.60546875 119.25 -75.1875 117 C-75.71730469 116.2575 -76.24710938 115.515 -76.79296875 114.75 C-77.19128906 114.1725 -77.58960938 113.595 -78 113 C-81.80390997 116.70672979 -85.31180317 120.57874756 -88.75 124.625 C-89.27658203 125.24181641 -89.80316406 125.85863281 -90.34570312 126.49414062 C-94.18113611 131.00065787 -97.93292528 135.57085747 -101.6640625 140.1640625 C-105.35892671 144.64980066 -109.15960822 149.04354834 -112.94921875 153.44921875 C-119.96664779 161.60834581 -126.89122333 169.83590416 -133.68359375 178.18359375 C-136.74377943 181.90432541 -139.86695724 185.56975837 -142.98876953 189.23876953 C-145.67652248 192.40718246 -148.30358584 195.61065739 -150.875 198.875 C-154.81466319 203.85013935 -158.97657998 208.61678814 -163.14746094 213.39746094 C-167.10871046 217.94658286 -170.96061741 222.57043248 -174.7578125 227.2578125 C-177.75737418 230.92626599 -180.82709039 234.53297171 -183.89697266 238.14257812 C-187.70518378 242.62914784 -191.42878705 247.17831336 -195.125 251.7578125 C-196.053125 252.86769531 -196.053125 252.86769531 -197 254 C-197.37423096 254.53520264 -197.74846191 255.07040527 -198.1340332 255.62182617 C-201.07164523 257.79150037 -204.22410066 257.3675228 -207.73046875 257.29296875 C-208.85609978 257.28660149 -208.85609978 257.28660149 -210.00447083 257.28010559 C-212.39918026 257.2633245 -214.79304534 257.2256749 -217.1875 257.1875 C-218.8118368 257.17245235 -220.4361868 257.15876409 -222.06054688 257.14648438 C-226.04068948 257.11342305 -230.02020163 257.06164594 -234 257 C-231.53372646 252.61158777 -229.14833825 248.72811772 -225.875 244.875 C-222.53629584 240.87619257 -219.28507427 236.82837325 -216.125 232.6875 C-212.65162624 228.14539585 -209.15739613 223.62140779 -205.625 219.125 C-205.16939697 218.54500244 -204.71379395 217.96500488 -204.24438477 217.36743164 C-201.86531843 214.34629602 -199.47195998 211.33756625 -197.05859375 208.34375 C-191.94372243 201.99722636 -186.91898056 195.60964884 -182.0625 189.0625 C-177.4227256 182.80749842 -172.58958012 176.74281404 -167.64916992 170.72338867 C-163.70313419 165.90296417 -159.93931297 160.9863951 -156.23046875 155.98046875 C-150.53270933 148.36682525 -144.57317707 140.95041783 -138.61450195 133.5402832 C-133.26244724 126.88289209 -128.0311232 120.14621473 -122.86254883 113.34545898 C-119.2428835 108.59414062 -115.55766825 103.90292311 -111.8125 99.25 C-104.64499387 90.34381229 -97.54360514 81.37916737 -91 72 C-88.03392938 73.31197705 -86.19062034 74.62487652 -84.125 77.1171875 C-83.61453125 77.72433594 -83.1040625 78.33148438 -82.578125 78.95703125 C-82.05734375 79.58996094 -81.5365625 80.22289062 -81 80.875 C-76.2100951 86.62777014 -76.2100951 86.62777014 -71 92 C-70.26136719 91.00742187 -69.52273438 90.01484375 -68.76171875 88.9921875 C-62.90561656 81.14185564 -56.97525138 73.36329194 -50.90234375 65.6796875 C-47.64185085 61.55370649 -44.41404501 57.40255096 -41.1875 53.25 C-40.60000977 52.49436768 -40.01251953 51.73873535 -39.40722656 50.96020508 C-36.40807811 47.10188305 -33.41164441 43.24147602 -30.41796875 39.37890625 C-29.2371974 37.85660153 -28.05620939 36.33446485 -26.875 34.8125 C-26.29693604 34.06766357 -25.71887207 33.32282715 -25.12329102 32.55541992 C-21.33602792 27.68699647 -17.4959646 22.86451852 -13.625 18.0625 C-8.882315 12.17750767 -4.36389625 6.17362969 0 0 Z " fill="#1A1A1A" transform="translate(511,377)"/>
<path d="M0 0 C1 2 1 2 0.44140625 3.9453125 C0.15136719 4.66460937 -0.13867188 5.38390625 -0.4375 6.125 C-0.72496094 6.84945313 -1.01242187 7.57390625 -1.30859375 8.3203125 C-1.53675781 8.87460937 -1.76492188 9.42890625 -2 10 C-3.32 9.34 -4.64 8.68 -6 8 C-4.02 5.36 -2.04 2.72 0 0 Z " fill="#DDDDDC" transform="translate(463,470)"/>
</svg>
